<mxfile host="app.diagrams.net" agent="Mozilla/5.0 (Windows NT 10.0; Win64; x64) AppleWebKit/537.36 (KHTML, like Gecko) Chrome/135.0.0.0 Safari/537.36" version="26.2.13">
  <diagram id="vkK8o-hsKimOO6CbCIKc" name="第1頁">
    <mxGraphModel dx="1253" dy="1539" grid="1" gridSize="10" guides="1" tooltips="1" connect="1" arrows="1" fold="1" page="1" pageScale="1" pageWidth="1169" pageHeight="827" math="0" shadow="0">
      <root>
        <mxCell id="0" />
        <mxCell id="1" parent="0" />
        <mxCell id="1qFZ0b5etKVb5s6CTwOf-1" value="&lt;font face=&quot;標楷體&quot; style=&quot;font-size: 20px;&quot;&gt;&lt;b&gt;環&lt;/b&gt;&lt;/font&gt;&lt;div&gt;&lt;font face=&quot;標楷體&quot; style=&quot;font-size: 20px;&quot;&gt;&lt;b&gt;境&lt;/b&gt;&lt;/font&gt;&lt;/div&gt;" style="rounded=1;whiteSpace=wrap;html=1;movable=1;resizable=1;rotatable=1;deletable=1;editable=1;locked=0;connectable=1;" parent="1" vertex="1">
          <mxGeometry x="150" y="236.00000000000006" width="60" height="177.86" as="geometry" />
        </mxCell>
        <mxCell id="iIE0ldJsGx-aEYX-XOFw-3" value="" style="rounded=1;whiteSpace=wrap;html=1;movable=1;resizable=1;rotatable=1;deletable=1;editable=1;locked=0;connectable=1;strokeWidth=1;fontFamily=標楷體;fontSize=18;fontStyle=0" parent="1" vertex="1">
          <mxGeometry x="240" y="118.81" width="850" height="429.46" as="geometry" />
        </mxCell>
        <mxCell id="iIE0ldJsGx-aEYX-XOFw-4" value="&lt;font style=&quot;font-size: 20px;&quot; color=&quot;#333333&quot;&gt;&lt;span&gt;&lt;b&gt;制定&lt;/b&gt;&lt;/span&gt;&lt;/font&gt;" style="rounded=0;whiteSpace=wrap;html=1;strokeColor=#36393d;fillColor=#cce5ff;fontFamily=標楷體;fontSize=18;fontStyle=0;align=center;verticalAlign=middle;" parent="1" vertex="1">
          <mxGeometry x="595" y="70" width="100" height="60" as="geometry" />
        </mxCell>
        <mxCell id="iIE0ldJsGx-aEYX-XOFw-24" value="&lt;font style=&quot;font-size: 20px;&quot; face=&quot;標楷體&quot;&gt;&lt;b style=&quot;&quot;&gt;驅&lt;/b&gt;&lt;/font&gt;&lt;b style=&quot;font-size: 20px; font-family: 標楷體; background-color: transparent; color: light-dark(rgb(0, 0, 0), rgb(255, 255, 255));&quot;&gt;動&lt;/b&gt;" style="text;html=1;align=center;verticalAlign=middle;whiteSpace=wrap;rounded=0;fontFamily=Helvetica;fontSize=12;fontColor=default;" parent="1" vertex="1">
          <mxGeometry x="430.00250000000005" y="300.535" width="54.375" height="30" as="geometry" />
        </mxCell>
        <mxCell id="iIE0ldJsGx-aEYX-XOFw-93" value="&lt;font style=&quot;font-size: 20px;&quot; color=&quot;#333333&quot;&gt;&lt;b&gt;數位創新之平台發展歷程&lt;/b&gt;&lt;/font&gt;" style="rounded=0;whiteSpace=wrap;html=1;strokeColor=#000000;fillColor=#dae8fc;fontFamily=標楷體;fontSize=18;fontStyle=0;align=center;verticalAlign=middle;" parent="1" vertex="1">
          <mxGeometry x="500" y="-10" width="290" height="60" as="geometry" />
        </mxCell>
        <mxCell id="jCKPyfohm9eTSwGeLUaR-52" value="&lt;font face=&quot;標楷體&quot;&gt;&lt;span style=&quot;font-size: 20px;&quot;&gt;&lt;b&gt;產生&lt;/b&gt;&lt;/span&gt;&lt;/font&gt;" style="text;html=1;align=center;verticalAlign=middle;whiteSpace=wrap;rounded=0;fontFamily=Helvetica;fontSize=12;fontColor=default;" parent="1" vertex="1">
          <mxGeometry x="830.0025" y="300.535" width="54.375" height="30" as="geometry" />
        </mxCell>
        <mxCell id="jCKPyfohm9eTSwGeLUaR-57" value="" style="group" parent="1" vertex="1" connectable="0">
          <mxGeometry x="270" y="230.53999999999996" width="150" height="170" as="geometry" />
        </mxCell>
        <mxCell id="1qFZ0b5etKVb5s6CTwOf-41" value="" style="rounded=1;whiteSpace=wrap;html=1;movable=1;resizable=1;rotatable=1;deletable=1;editable=1;locked=0;connectable=1;strokeWidth=1;dashed=1;dashPattern=8 8;fontFamily=標楷體;fontSize=18;fontStyle=0" parent="jCKPyfohm9eTSwGeLUaR-57" vertex="1">
          <mxGeometry y="33.93" width="150" height="136.07" as="geometry" />
        </mxCell>
        <mxCell id="1qFZ0b5etKVb5s6CTwOf-51" value="&lt;font color=&quot;#333333&quot;&gt;&lt;span&gt;&lt;b&gt;認知&lt;/b&gt;&lt;/span&gt;&lt;/font&gt;" style="rounded=1;whiteSpace=wrap;html=1;strokeColor=#36393d;fillColor=#eeeeee;fontFamily=標楷體;fontSize=18;fontStyle=0" parent="jCKPyfohm9eTSwGeLUaR-57" vertex="1">
          <mxGeometry x="40" width="70" height="40" as="geometry" />
        </mxCell>
        <mxCell id="qAASfBlt8r1QQWv_uzUB-21" value="" style="group" parent="jCKPyfohm9eTSwGeLUaR-57" vertex="1" connectable="0">
          <mxGeometry x="14.998383863429183" y="50.430000000000035" width="120.00323227314163" height="110" as="geometry" />
        </mxCell>
        <mxCell id="qAASfBlt8r1QQWv_uzUB-13" value="產業&lt;div&gt;需求&lt;/div&gt;" style="rounded=0;whiteSpace=wrap;html=1;movable=1;resizable=1;rotatable=1;deletable=1;editable=1;locked=0;connectable=1;fontFamily=標楷體;fontSize=18;fontStyle=0" parent="qAASfBlt8r1QQWv_uzUB-21" vertex="1">
          <mxGeometry y="50" width="60" height="60" as="geometry" />
        </mxCell>
        <mxCell id="qAASfBlt8r1QQWv_uzUB-14" value="企業&lt;div&gt;能力&lt;/div&gt;" style="rounded=0;whiteSpace=wrap;html=1;movable=1;resizable=1;rotatable=1;deletable=1;editable=1;locked=0;connectable=1;fontFamily=標楷體;fontSize=18;fontStyle=0" parent="qAASfBlt8r1QQWv_uzUB-21" vertex="1">
          <mxGeometry x="60" y="50" width="60" height="60" as="geometry" />
        </mxCell>
        <mxCell id="qAASfBlt8r1QQWv_uzUB-20" value="能動性" style="rounded=0;whiteSpace=wrap;html=1;movable=1;resizable=1;rotatable=1;deletable=1;editable=1;locked=0;connectable=1;fontFamily=標楷體;fontSize=18;fontStyle=0;fillColor=#dae8fc;strokeColor=#000000;" parent="qAASfBlt8r1QQWv_uzUB-21" vertex="1">
          <mxGeometry x="0.003232273141634323" width="120" height="50" as="geometry" />
        </mxCell>
        <mxCell id="jCKPyfohm9eTSwGeLUaR-63" style="edgeStyle=orthogonalEdgeStyle;rounded=0;orthogonalLoop=1;jettySize=auto;html=1;exitX=1;exitY=0.5;exitDx=0;exitDy=0;entryX=0.005;entryY=0.515;entryDx=0;entryDy=0;entryPerimeter=0;strokeWidth=2;strokeColor=#808080;" parent="1" source="1qFZ0b5etKVb5s6CTwOf-41" target="iIE0ldJsGx-aEYX-XOFw-15" edge="1">
          <mxGeometry relative="1" as="geometry" />
        </mxCell>
        <mxCell id="jCKPyfohm9eTSwGeLUaR-64" value="" style="edgeStyle=orthogonalEdgeStyle;rounded=0;orthogonalLoop=1;jettySize=auto;html=1;strokeColor=#808080;strokeWidth=2;align=center;verticalAlign=middle;fontFamily=Helvetica;fontSize=11;fontColor=default;labelBackgroundColor=default;endArrow=classic;" parent="1" target="jCKPyfohm9eTSwGeLUaR-22" edge="1">
          <mxGeometry relative="1" as="geometry">
            <mxPoint x="790.0000000000002" y="333.9999999999998" as="sourcePoint" />
            <mxPoint x="889.9999999999998" y="333.9999999999998" as="targetPoint" />
            <Array as="points">
              <mxPoint x="790" y="335" />
            </Array>
          </mxGeometry>
        </mxCell>
        <mxCell id="jCKPyfohm9eTSwGeLUaR-65" value="&lt;font face=&quot;標楷體&quot;&gt;&lt;span style=&quot;font-size: 20px;&quot;&gt;&lt;b&gt;影響&lt;/b&gt;&lt;/span&gt;&lt;/font&gt;" style="text;html=1;align=center;verticalAlign=middle;whiteSpace=wrap;rounded=0;fontFamily=Helvetica;fontSize=12;fontColor=default;" parent="1" vertex="1">
          <mxGeometry x="830" y="470" width="54.375" height="30" as="geometry" />
        </mxCell>
        <mxCell id="iIE0ldJsGx-aEYX-XOFw-15" value="" style="rounded=1;whiteSpace=wrap;html=1;movable=1;resizable=1;rotatable=1;deletable=1;editable=1;locked=0;connectable=1;strokeWidth=1;dashed=1;dashPattern=8 8;fontFamily=標楷體;fontSize=18;fontStyle=0;arcSize=19;" parent="1" vertex="1">
          <mxGeometry x="500" y="173.92999999999998" width="290" height="308.57" as="geometry" />
        </mxCell>
        <mxCell id="iIE0ldJsGx-aEYX-XOFw-16" value="&lt;span style=&quot;color: light-dark(rgb(51, 51, 51), rgb(193, 193, 193)); background-color: transparent;&quot;&gt;&lt;b&gt;&lt;font style=&quot;font-size: 20px;&quot;&gt;行動&lt;/font&gt;&lt;/b&gt;&lt;/span&gt;" style="rounded=1;whiteSpace=wrap;html=1;strokeColor=#36393d;fillColor=#eeeeee;fontFamily=標楷體;fontSize=18;fontStyle=0" parent="1" vertex="1">
          <mxGeometry x="610" y="148.56999999999996" width="70" height="40" as="geometry" />
        </mxCell>
        <mxCell id="jCKPyfohm9eTSwGeLUaR-59" value="" style="group" parent="1" vertex="1" connectable="0">
          <mxGeometry x="544.9999673741843" y="200" width="200.00006525163133" height="100" as="geometry" />
        </mxCell>
        <mxCell id="1qFZ0b5etKVb5s6CTwOf-47" value="靈活運用" style="rounded=0;whiteSpace=wrap;html=1;movable=1;resizable=1;rotatable=1;deletable=1;editable=1;locked=0;connectable=1;fontFamily=標楷體;fontSize=18;fontStyle=0" parent="jCKPyfohm9eTSwGeLUaR-59" vertex="1">
          <mxGeometry x="100.00006525163133" y="50" width="100" height="50" as="geometry" />
        </mxCell>
        <mxCell id="1qFZ0b5etKVb5s6CTwOf-43" value="雙元性靈巧" style="rounded=0;whiteSpace=wrap;html=1;fontSize=18;fontFamily=標楷體;movable=1;resizable=1;rotatable=1;deletable=1;editable=1;locked=0;connectable=1;fillColor=#cce5ff;strokeColor=#36393d;fontStyle=0;align=center;verticalAlign=middle;" parent="jCKPyfohm9eTSwGeLUaR-59" vertex="1">
          <mxGeometry width="200" height="50" as="geometry" />
        </mxCell>
        <mxCell id="1qFZ0b5etKVb5s6CTwOf-48" value="創新探索" style="rounded=0;whiteSpace=wrap;html=1;movable=1;resizable=1;rotatable=1;deletable=1;editable=1;locked=0;connectable=1;fontFamily=標楷體;fontSize=18;fontStyle=0" parent="jCKPyfohm9eTSwGeLUaR-59" vertex="1">
          <mxGeometry y="50" width="100" height="50" as="geometry" />
        </mxCell>
        <mxCell id="iIE0ldJsGx-aEYX-XOFw-49" value="&lt;font face=&quot;標楷體&quot;&gt;&lt;span style=&quot;font-size: 20px;&quot;&gt;&lt;b&gt;實踐&lt;/b&gt;&lt;/span&gt;&lt;/font&gt;" style="text;html=1;align=center;verticalAlign=middle;whiteSpace=wrap;rounded=0;" parent="1" vertex="1">
          <mxGeometry x="1120.0025" y="300.005" width="54.375" height="30" as="geometry" />
        </mxCell>
        <mxCell id="jCKPyfohm9eTSwGeLUaR-89" style="edgeStyle=orthogonalEdgeStyle;rounded=0;orthogonalLoop=1;jettySize=auto;html=1;entryX=0.009;entryY=0.413;entryDx=0;entryDy=0;entryPerimeter=0;strokeColor=#808080;strokeWidth=2;align=center;verticalAlign=middle;fontFamily=Helvetica;fontSize=11;fontColor=default;labelBackgroundColor=default;endArrow=classic;" parent="1" edge="1">
          <mxGeometry relative="1" as="geometry">
            <mxPoint x="1090" y="331" as="sourcePoint" />
            <mxPoint x="1212.1100500000002" y="331.32302000000027" as="targetPoint" />
          </mxGeometry>
        </mxCell>
        <mxCell id="qAASfBlt8r1QQWv_uzUB-8" value="" style="html=1;shadow=0;dashed=0;align=center;verticalAlign=middle;shape=mxgraph.arrows2.twoWayArrow;dy=0.82;dx=11.38;flipV=1;flipH=1;direction=south;strokeColor=#808080;fillColor=#808080;" parent="1" vertex="1">
          <mxGeometry x="636.69" y="308.54" width="16.62" height="50" as="geometry" />
        </mxCell>
        <mxCell id="qAASfBlt8r1QQWv_uzUB-15" style="edgeStyle=orthogonalEdgeStyle;rounded=0;orthogonalLoop=1;jettySize=auto;html=1;exitX=0.5;exitY=1;exitDx=0;exitDy=0;entryX=0.459;entryY=1.004;entryDx=0;entryDy=0;entryPerimeter=0;strokeColor=#808080;strokeWidth=2;align=center;verticalAlign=middle;fontFamily=Helvetica;fontSize=11;fontColor=default;labelBackgroundColor=default;endArrow=classic;" parent="1" source="jCKPyfohm9eTSwGeLUaR-22" target="1qFZ0b5etKVb5s6CTwOf-41" edge="1">
          <mxGeometry relative="1" as="geometry">
            <Array as="points">
              <mxPoint x="995" y="510" />
              <mxPoint x="339" y="510" />
            </Array>
          </mxGeometry>
        </mxCell>
        <mxCell id="jCKPyfohm9eTSwGeLUaR-22" value="&lt;font color=&quot;#333333&quot;&gt;&lt;b&gt;平台階段性&lt;/b&gt;&lt;/font&gt;&lt;div&gt;&lt;font color=&quot;#333333&quot;&gt;&lt;b&gt;應用成果&lt;/b&gt;&lt;/font&gt;&lt;/div&gt;" style="rounded=1;whiteSpace=wrap;html=1;strokeColor=#36393d;fillColor=#eeeeee;fontFamily=標楷體;fontSize=20;fontStyle=0" parent="1" vertex="1">
          <mxGeometry x="920" y="278.22" width="150" height="100" as="geometry" />
        </mxCell>
        <mxCell id="qAASfBlt8r1QQWv_uzUB-29" style="edgeStyle=orthogonalEdgeStyle;rounded=0;orthogonalLoop=1;jettySize=auto;html=1;exitX=1;exitY=0.5;exitDx=0;exitDy=0;entryX=0.007;entryY=0.449;entryDx=0;entryDy=0;entryPerimeter=0;strokeColor=#808080;strokeWidth=2;align=center;verticalAlign=middle;fontFamily=Helvetica;fontSize=11;fontColor=default;labelBackgroundColor=default;endArrow=classic;" parent="1" source="1qFZ0b5etKVb5s6CTwOf-1" target="1qFZ0b5etKVb5s6CTwOf-41" edge="1">
          <mxGeometry relative="1" as="geometry" />
        </mxCell>
        <mxCell id="qAASfBlt8r1QQWv_uzUB-31" value="" style="group" parent="1" vertex="1" connectable="0">
          <mxGeometry x="1210" y="250.26000000000002" width="180" height="130.55" as="geometry" />
        </mxCell>
        <mxCell id="jCKPyfohm9eTSwGeLUaR-77" value="" style="rounded=1;whiteSpace=wrap;html=1;movable=1;resizable=1;rotatable=1;deletable=1;editable=1;locked=0;connectable=1;strokeWidth=1;dashed=1;dashPattern=8 8;fontFamily=標楷體;fontSize=18;fontStyle=0;arcSize=19;" parent="qAASfBlt8r1QQWv_uzUB-31" vertex="1">
          <mxGeometry y="20.00999999999999" width="180" height="110.54" as="geometry" />
        </mxCell>
        <mxCell id="iIE0ldJsGx-aEYX-XOFw-96" value="&lt;font style=&quot;font-size: 20px;&quot;&gt;&lt;b&gt;數位紡織&lt;/b&gt;&lt;/font&gt;&lt;div&gt;&lt;font style=&quot;font-size: 20px;&quot;&gt;&lt;b&gt;產業生態系&lt;/b&gt;&lt;/font&gt;&lt;/div&gt;" style="rounded=1;whiteSpace=wrap;html=1;fontSize=18;fontFamily=標楷體;movable=1;resizable=1;rotatable=1;deletable=1;editable=1;locked=0;connectable=1;fontStyle=0;fillColor=#fff2cc;strokeColor=#000000;" parent="qAASfBlt8r1QQWv_uzUB-31" vertex="1">
          <mxGeometry x="18.61" y="50.55000000000001" width="142.78" height="69.45" as="geometry" />
        </mxCell>
        <mxCell id="jCKPyfohm9eTSwGeLUaR-29" value="&lt;font color=&quot;#333333&quot; style=&quot;font-size: 20px;&quot;&gt;&lt;span style=&quot;&quot;&gt;目的&lt;/span&gt;&lt;/font&gt;" style="rounded=1;whiteSpace=wrap;html=1;strokeColor=#36393d;fillColor=#eeeeee;fontFamily=標楷體;fontSize=18;fontStyle=1" parent="qAASfBlt8r1QQWv_uzUB-31" vertex="1">
          <mxGeometry x="55" width="70" height="40" as="geometry" />
        </mxCell>
        <mxCell id="jCKPyfohm9eTSwGeLUaR-34" value="&lt;font&gt;可供性實現&lt;/font&gt;" style="rounded=0;whiteSpace=wrap;html=1;movable=1;resizable=1;rotatable=1;deletable=1;editable=1;locked=0;connectable=1;fontFamily=標楷體;fontSize=18;fontStyle=0" parent="1" vertex="1">
          <mxGeometry x="595.0000000000001" y="420" width="100" height="49.99999999999998" as="geometry" />
        </mxCell>
        <mxCell id="iIE0ldJsGx-aEYX-XOFw-86" value="&lt;span&gt;&lt;font&gt;科技可供性&lt;/font&gt;&lt;/span&gt;" style="rounded=0;whiteSpace=wrap;html=1;fontSize=18;fontFamily=標楷體;movable=1;resizable=1;rotatable=1;deletable=1;editable=1;locked=0;connectable=1;fillColor=#cce5ff;strokeColor=#36393d;fontStyle=0" parent="1" vertex="1">
          <mxGeometry x="595.0000000000001" y="370" width="100" height="49.99999999999998" as="geometry" />
        </mxCell>
      </root>
    </mxGraphModel>
  </diagram>
</mxfile>
